<?xml version="1.0" standalone="no"?>
<!DOCTYPE svg PUBLIC "-//W3C//DTD SVG 20010904//EN"
 "http://www.w3.org/TR/2001/REC-SVG-20010904/DTD/svg10.dtd">
<svg version="1.0" xmlns="http://www.w3.org/2000/svg"
 width="512.000000pt" height="512.000000pt" viewBox="0 0 512.000000 512.000000"
 preserveAspectRatio="xMidYMid meet">
<metadata>
Created by potrace 1.14, written by Peter Selinger 2001-2017
</metadata>
<g transform="translate(0.000000,512.000000) scale(0.100000,-0.100000)"
fill="#000000" stroke="none">
<path d="M2407 4803 c-1 0 -40 -4 -87 -7 -452 -33 -888 -181 -1190 -403 -90
-66 -106 -79 -190 -154 -264 -235 -477 -566 -591 -917 -51 -158 -40 -253 40
-345 41 -46 89 -76 149 -91 67 -18 3998 -15 4058 2 79 23 155 95 188 177 34
84 25 159 -40 333 -32 87 -125 285 -157 337 -125 203 -205 305 -346 445 -327
325 -738 520 -1251 595 -135 20 -249 28 -423 29 -87 1 -159 0 -160 -1z m208
-500 c11 -3 31 -15 43 -27 68 -61 72 -163 9 -224 -62 -59 -141 -61 -206 -6
-95 82 -59 228 64 265 20 6 53 3 90 -8z m-1245 -342 c79 -63 86 -155 17 -228
-79 -84 -224 -45 -255 69 -37 138 127 248 238 159z m2520 24 c102 -29 136
-178 57 -252 -73 -69 -165 -62 -229 17 -65 82 -24 206 79 237 38 11 45 11 93
-2z"/>
<path d="M542 2553 c-94 -19 -170 -61 -242 -133 -134 -133 -178 -319 -120
-496 49 -147 193 -278 348 -316 72 -17 3964 -19 4048 -2 216 45 379 235 388
453 9 225 -152 439 -371 492 -70 17 -3967 19 -4051 2z"/>
<path d="M435 1278 c-40 -10 -81 -45 -101 -85 -23 -49 -26 -245 -6 -353 23
-126 97 -260 191 -348 92 -86 228 -153 346 -169 69 -10 3365 -9 3410 1 220 49
385 180 475 379 39 87 53 163 55 307 2 168 -17 219 -92 256 -36 17 -123 18
-2146 19 -1159 0 -2118 -3 -2132 -7z"/>
</g>
</svg>
